HIERARCHY
ROOT Hips
{
	OFFSET 0.000000 0.000000 0.000000
	CHANNELS 6 Xposition Yposition Zposition Xrotation Yrotation Zrotation
	JOINT Spine
	{
		OFFSET 0.000000 0.049001 0.073502
		CHANNELS 3 Xrotation Yrotation Zrotation
		JOINT Spine1
		{
			OFFSET 0.000000 0.017018 0.096514
			CHANNELS 3 Xrotation Yrotation Zrotation
			JOINT Spine2
			{
				OFFSET 0.000000 0.008542 0.097630
				CHANNELS 3 Xrotation Yrotation Zrotation
				JOINT Spine3
				{
					OFFSET 0.000000 0.000000 0.098003
					CHANNELS 3 Xrotation Yrotation Zrotation
					JOINT Neck
					{
						OFFSET 0.000000 -0.036751 0.257258
						CHANNELS 3 Xrotation Yrotation Zrotation
						JOINT Head
						{
							OFFSET 0.000000 -0.023400 0.132707
							CHANNELS 3 Xrotation Yrotation Zrotation
							End Site
							{
								OFFSET 0.000000 0.000000 0.000000
							}
						}
					}
					JOINT RightShoulder
					{
						OFFSET -0.030410 -0.050683 0.164214
						CHANNELS 3 Xrotation Yrotation Zrotation
						JOINT RightArm
						{
							OFFSET -0.151036 0.000000 0.000000
							CHANNELS 3 Xrotation Yrotation Zrotation
							JOINT RightForeArm
							{
								OFFSET -0.279942 0.000000 0.000000
								CHANNELS 3 Xrotation Yrotation Zrotation
								JOINT RightHand
								{
									OFFSET -0.265034 0.000000 0.000000
									CHANNELS 3 Xrotation Yrotation Zrotation
									JOINT RightHandEnd
									{
										OFFSET -0.071866 0.000000 0.000000
										CHANNELS 3 Xrotation Yrotation Zrotation
										End Site
										{
											OFFSET 0.000000 0.000000 0.000000
										}
									}
									JOINT RightHandThumb1
									{
										OFFSET -0.028746 -0.047911 -0.019164
										CHANNELS 3 Xrotation Yrotation Zrotation
										End Site
										{
											OFFSET 0.000000 0.000000 0.000000
										}
									}
								}
							}
						}
					}
					JOINT LeftShoulder
					{
						OFFSET 0.030410 -0.050683 0.164214
						CHANNELS 3 Xrotation Yrotation Zrotation
						JOINT LeftArm
						{
							OFFSET 0.151036 0.000000 0.000000
							CHANNELS 3 Xrotation Yrotation Zrotation
							JOINT LeftForeArm
							{
								OFFSET 0.279942 0.000000 0.000000
								CHANNELS 3 Xrotation Yrotation Zrotation
								JOINT LeftHand
								{
									OFFSET 0.265034 0.000000 0.000000
									CHANNELS 3 Xrotation Yrotation Zrotation
									JOINT LeftHandEnd
									{
										OFFSET 0.071866 0.000000 0.000000
										CHANNELS 3 Xrotation Yrotation Zrotation
										End Site
										{
											OFFSET 0.000000 0.000000 0.000000
										}
									}
									JOINT LeftHandThumb1
									{
										OFFSET 0.028746 -0.047911 -0.019164
										CHANNELS 3 Xrotation Yrotation Zrotation
										End Site
										{
											OFFSET 0.000000 0.000000 0.000000
										}
									}
								}
							}
						}
					}
				}
			}
		}
	}
	JOINT RightUpLeg
	{
		OFFSET -0.090216 0.000000 -0.026355
		CHANNELS 3 Xrotation Yrotation Zrotation
		JOINT RightLeg
		{
			OFFSET 0.000000 0.000000 -0.402871
			CHANNELS 3 Xrotation Yrotation Zrotation
			JOINT RightFoot
			{
				OFFSET 0.000000 0.000000 -0.414145
				CHANNELS 3 Xrotation Yrotation Zrotation
				JOINT RightToeBase
				{
					OFFSET 0.000000 -0.146359 -0.053270
					CHANNELS 3 Xrotation Yrotation Zrotation
					End Site
					{
						OFFSET 0.000000 0.000000 0.000000
					}
				}
			}
		}
	}
	JOINT LeftUpLeg
	{
		OFFSET 0.090216 0.000000 -0.026355
		CHANNELS 3 Xrotation Yrotation Zrotation
		JOINT LeftLeg
		{
			OFFSET 0.000000 0.000000 -0.402871
			CHANNELS 3 Xrotation Yrotation Zrotation
			JOINT LeftFoot
			{
				OFFSET 0.000000 0.000000 -0.414145
				CHANNELS 3 Xrotation Yrotation Zrotation
				JOINT LeftToeBase
				{
					OFFSET 0.000000 -0.146359 -0.053270
					CHANNELS 3 Xrotation Yrotation Zrotation
					End Site
					{
						OFFSET 0.000000 0.000000 0.000000
					}
				}
			}
		}
	}
}
MOTION
Frames: 11
Frame Time: 0.033333
-0.027798 0.480959 0.908032 9.363900 -4.292300 100.100600 1.419100 2.196200 -0.208500 -0.362800 0.571900 -0.349800 3.652700 -0.453500 -5.929100 3.275800 0.675200 -2.148100 23.156300 -7.163900 -13.703200 3.638900 -4.236800 -23.107600 -24.792600 12.746300 4.064100 -97.778800 -12.760500 7.376800 0.000000 0.000100 68.257900 -58.642200 30.567200 25.905100 0.000000 0.000000 0.000000 0.000000 0.000000 0.000000 11.634100 1.840600 6.293400 11.069600 51.702400 -18.239000 -0.000100 -0.000100 -90.214300 -12.723200 -8.929700 3.742600 0.000000 0.000000 0.000000 0.000000 0.000000 0.000000 -22.892800 -1.830000 -25.136000 23.499200 0.000000 0.000000 26.264200 3.866100 -3.971900 -16.923300 0.000000 0.000000 6.561300 12.694300 13.098200 13.568000 0.000000 0.000000 -4.243200 -11.099400 -10.804800 -17.612100 0.000000 0.000000 
-0.026739 0.478272 0.908982 8.933300 -3.968300 97.594700 1.489700 2.419500 -0.102300 -0.343300 0.955100 -0.354000 3.436100 -0.786300 -6.669800 2.911700 0.710600 -2.180700 21.745600 -7.669200 -14.229400 3.581200 -3.864700 -23.720900 -25.031300 12.116500 3.152000 -99.717700 -13.839000 8.260600 0.000000 0.000100 71.073300 -62.690200 27.255100 26.039700 0.000000 0.000000 0.000000 0.000000 0.000000 0.000000 11.481400 2.044100 4.848100 11.548600 52.261300 -19.911900 -0.000100 -0.000100 -89.756000 -13.264500 -10.506800 3.249800 0.000000 0.000000 0.000000 0.000000 0.000000 0.000000 -27.124700 -1.345900 -20.080300 30.689300 0.000000 0.000000 25.586200 -6.308500 -4.856800 -23.030500 0.000000 0.000000 6.769800 12.526900 15.435300 11.939800 0.000000 0.000000 -3.887500 -10.746300 -11.172200 -17.384600 0.000000 0.000000 
-0.025933 0.476496 0.908456 9.169900 -3.859200 95.054200 1.783200 3.061200 -0.048200 -0.203200 1.311000 -0.360000 3.079900 -0.895000 -7.281100 2.597600 0.775500 -2.244900 20.382400 -8.052500 -14.813700 3.600500 -3.628100 -24.304300 -25.394700 11.246600 2.734900 -101.471100 -15.071700 8.722300 0.000000 0.000100 74.274200 -65.991700 24.432000 25.850300 0.000000 0.000000 0.000000 0.000000 0.000000 0.000000 11.380700 2.035400 3.090200 13.063900 51.832700 -22.721900 -0.000100 -0.000100 -89.285900 -13.685800 -11.528400 2.891300 0.000000 0.000000 0.000000 0.000000 0.000000 0.000000 -30.651500 -0.602900 -14.651100 37.929600 0.000000 0.000000 21.299700 -11.484300 -5.880400 -29.142400 0.000000 0.000000 7.252600 13.110800 17.565000 10.337600 0.000000 0.000000 -3.622200 -10.353200 -11.407300 -17.294000 0.000000 0.000000 
-0.024214 0.475028 0.907613 9.496000 -4.056600 92.688000 2.090900 3.714700 -0.079200 -0.019600 1.602500 -0.382800 2.777400 -0.907800 -7.930300 2.392900 0.863300 -2.413600 19.339000 -8.330000 -15.242300 3.635900 -3.501500 -24.717300 -25.664700 10.015400 2.850900 -103.406000 -16.506900 8.644900 0.000000 0.000100 78.066200 -68.778600 22.358000 25.752600 0.000000 0.000000 0.000000 0.000000 0.000000 0.000000 11.407400 2.032600 1.127400 15.078800 50.543300 -26.138300 -0.000100 -0.000100 -88.795400 -14.202900 -12.051200 2.648300 0.000000 0.000000 0.000000 0.000000 0.000000 0.000000 -32.687100 0.280100 -10.328800 43.819400 0.000000 0.000000 14.869400 -10.968200 -10.171100 -31.576100 0.000000 0.000000 8.073500 13.844900 19.474800 8.785800 0.000000 0.000000 -3.312300 -9.986600 -11.428300 -17.229700 0.000000 0.000000 
-0.021808 0.473146 0.907143 9.623100 -4.304700 90.365300 2.198800 4.256300 -0.173600 0.099200 1.843400 -0.400800 2.646600 -1.001100 -8.540500 2.280800 0.902800 -2.561300 18.543700 -8.497500 -15.500300 3.726500 -3.420300 -24.868700 -25.661400 8.729200 3.298700 -105.764300 -17.954800 7.601800 0.000000 0.000100 82.575700 -70.990900 21.027000 25.693500 0.000000 0.000000 0.000000 0.000000 0.000000 0.000000 11.558400 2.228700 -1.022900 17.163700 48.663100 -29.788600 -0.000100 -0.000100 -88.222800 -14.191800 -12.261200 2.656600 0.000000 0.000000 0.000000 0.000000 0.000000 0.000000 -33.463400 1.434400 -7.271100 48.055200 0.000000 0.000000 9.185400 -7.757500 -17.154600 -31.059300 0.000000 0.000000 8.893000 14.389400 21.457400 7.381300 0.000000 0.000000 -2.939700 -9.503000 -11.428100 -17.085200 0.000000 0.000000 
-0.019040 0.470477 0.907207 9.546400 -4.571900 87.904100 2.218400 4.690400 -0.260700 0.167700 2.027000 -0.413300 2.612200 -1.208500 -8.944700 2.210200 0.876400 -2.585400 17.782900 -8.525300 -15.703000 3.950600 -3.363500 -24.758600 -25.554800 7.510400 3.858000 -108.288900 -19.315200 5.630000 0.000000 0.000100 87.499100 -73.990700 19.450300 25.603100 0.000000 0.000000 0.000000 0.000000 0.000000 0.000000 11.714400 2.492300 -3.301800 19.332500 46.575600 -33.600800 -0.000100 -0.000100 -87.491300 -13.129400 -12.265800 2.962000 0.000000 0.000000 0.000000 0.000000 0.000000 0.000000 -33.181300 2.904200 -5.179200 50.806400 0.000000 0.000000 5.457400 -4.640600 -23.653200 -30.663300 0.000000 0.000000 9.586900 14.705500 23.589000 6.229300 0.000000 0.000000 -2.570000 -8.959000 -11.459400 -17.110900 0.000000 0.000000 
-0.015966 0.466943 0.907669 9.189200 -4.824400 85.252000 2.200800 4.916400 -0.296900 0.183100 2.154700 -0.410600 2.614300 -1.556300 -9.190200 2.165800 0.821900 -2.503300 17.008200 -8.360600 -15.849400 4.235500 -3.287100 -24.440100 -25.327900 6.204200 4.376700 -110.491500 -20.762400 3.174100 0.000000 0.000100 92.349900 -78.621800 16.767400 25.613100 0.000000 0.000000 0.000000 0.000000 0.000000 0.000000 11.724300 2.576500 -5.410300 21.902100 44.636900 -37.776300 -0.000100 -0.000100 -86.555500 -11.766300 -12.039800 3.222100 0.000000 0.000000 0.000000 0.000000 0.000000 0.000000 -32.012600 4.699000 -4.281900 52.230600 0.000000 0.000000 3.213900 -2.271300 -27.273700 -31.746400 0.000000 0.000000 10.031100 14.734600 25.783600 5.501300 0.000000 0.000000 -2.359300 -8.892700 -11.288200 -17.391300 0.000000 0.000000 
-0.012499 0.462834 0.908139 8.611000 -4.863100 82.384200 1.980500 4.962600 -0.293700 0.112000 2.246700 -0.411200 2.646900 -2.076400 -9.380000 2.150800 0.727400 -2.350900 16.295100 -7.935500 -15.850100 4.442900 -3.111600 -23.974300 -24.538700 4.813000 4.853200 -112.010900 -22.320300 0.622100 0.000000 0.000100 96.826500 -83.021500 13.619200 25.662800 0.000000 0.000000 0.000000 0.000000 0.000000 0.000000 11.527600 2.473400 -6.928100 25.101200 42.935600 -42.568300 -0.000100 -0.000100 -85.483600 -11.096300 -11.687600 3.131800 0.000000 0.000000 0.000000 0.000000 0.000000 0.000000 -30.345800 6.957300 -5.026600 52.464100 0.000000 0.000000 1.697600 0.102400 -28.440500 -32.654500 0.000000 0.000000 10.092200 14.552000 27.962600 5.168300 0.000000 0.000000 -2.360900 -9.379300 -10.677900 -17.552600 0.000000 0.000000 
-0.008227 0.458018 0.908609 7.914200 -4.784100 79.084200 1.642400 4.894700 -0.277000 -0.029100 2.300000 -0.392900 2.727300 -2.692900 -9.403100 2.171600 0.593600 -2.129400 15.614300 -7.325300 -15.748400 4.547200 -2.884600 -23.368300 -22.860000 3.474600 5.280600 -112.614600 -23.792800 -1.861000 0.000000 0.000100 100.811700 -84.755700 11.295600 25.562200 0.000000 0.000000 0.000000 0.000000 0.000000 0.000000 11.256000 2.402400 -7.639300 28.706300 41.263500 -47.868100 -0.000100 -0.000100 -84.502600 -10.587300 -11.580500 2.979200 0.000000 0.000000 0.000000 0.000000 0.000000 0.000000 -28.197400 9.517500 -7.490000 51.389600 0.000000 0.000000 0.280600 2.742900 -29.635900 -33.354800 0.000000 0.000000 10.081100 14.281700 30.345400 4.901700 0.000000 0.000000 -2.379000 -9.485700 -9.720400 -17.572200 0.000000 0.000000 
-0.003348 0.451907 0.909546 7.136200 -4.643700 74.982800 1.232700 4.715900 -0.190700 -0.232200 2.318100 -0.363500 2.981000 -3.237900 -9.099900 2.241700 0.444600 -1.811700 14.880200 -6.735800 -15.639900 4.567800 -2.865600 -22.566100 -20.379500 2.098800 5.637300 -112.090400 -25.114500 -4.236000 -0.000100 0.000100 104.139800 -83.852800 9.806400 25.004500 0.000000 0.000000 0.000000 0.000000 0.000000 0.000000 10.996300 2.566500 -7.716900 32.209900 39.659000 -52.878200 -0.000100 -0.000100 -83.934300 -8.914000 -11.799000 3.252300 0.000000 0.000000 0.000000 0.000000 0.000000 0.000000 -25.661100 11.923800 -11.721900 48.565200 0.000000 0.000000 -0.715600 4.938600 -32.067400 -35.480600 0.000000 0.000000 10.090900 14.002300 33.291200 4.511700 0.000000 0.000000 -2.099000 -8.629500 -8.470600 -17.986300 0.000000 0.000000 
0.001633 0.443258 0.911398 5.980000 -4.439900 69.854600 0.838900 4.214300 -0.046100 -0.507800 2.318700 -0.307500 3.551600 -3.618400 -8.492500 2.383400 0.327900 -1.471800 14.159800 -6.362300 -15.462300 4.478900 -3.260000 -21.522100 -17.250400 0.467400 6.012100 -110.208500 -26.547100 -6.558500 -0.000100 0.000100 106.546900 -82.049400 7.452800 23.689600 0.000000 0.000000 0.000000 0.000000 0.000000 0.000000 10.973000 2.915400 -7.310500 35.192600 38.485400 -56.958300 -0.000100 -0.000100 -83.823200 -6.232600 -11.907400 3.818800 0.000000 0.000000 0.000000 0.000000 0.000000 0.000000 -22.715400 13.429400 -18.547000 43.738300 0.000000 0.000000 -0.540200 6.150100 -33.825800 -36.753900 0.000000 0.000000 10.116000 13.375700 36.953100 4.193700 0.000000 0.000000 -1.511100 -7.487000 -6.867400 -18.802700 0.000000 0.000000 
